<?xml version="1.0" encoding="UTF-8" standalone="no"?>
<!-- Created with Inkscape (http://www.inkscape.org/) -->

<svg
   version="1.1"
   id="svg1"
   width="1145.4908"
   height="187.31854"
   viewBox="0 0 1145.4908 187.31854"
   xmlns="http://www.w3.org/2000/svg"
   xmlns:svg="http://www.w3.org/2000/svg">
  <defs
     id="defs1" />
  <g
     id="g1"
     transform="translate(-402.61095,-748.17817)">
    <path
       style="fill:#050505;stroke:none"
       d="m 1092.0556,748.71139 c -22.7955,3.26563 -37.2869,19.47223 -44.655,40.57175 -11.4397,32.75867 -10.6944,73.30286 0.3225,106 8.9035,26.42523 30.9913,43.40271 59.3325,39.71063 22.4536,-2.92505 36.1451,-21.5971 42.9969,-41.71063 11.2459,-33.01233 12.2597,-77.91748 -2.7786,-110 -10.4295,-22.24991 -29.3644,-38.27551 -55.2183,-34.57175 m -686.99995,3.57175 c -4.83951,16.37271 -1,38.90634 -1,56 0,40.99661 0.8873,82.08786 1,123 24.55206,-0.50403 55.61499,4.57178 77,-10.43982 33.43628,-23.47116 34.95007,-85.06561 23.97455,-120.56018 -3.51633,-11.3717 -8.36167,-23.37997 -17.06482,-31.82947 -24.39572,-23.68466 -55.01083,-9.29022 -83.90973,-16.17053 m 125,179 h 29 v -135 -32 c 0,-3.18314 1.21027,-9.66812 -2.31787,-11.39661 -3.37427,-1.6531 -24.26245,-1.49374 -26.07874,1.8696 -1.93621,3.58551 -0.60339,10.5456 -0.60339,14.52701 v 35 127 m 52,-178 v 126 35 c 0,4.15469 -1.26843,10.87811 0.60339,14.6821 2.05555,4.17734 26.73774,4.17731 28.79322,0 2.41241,-4.90265 0.60339,-14.28604 0.60339,-19.6821 0,-15.86682 2.6795,-34.54462 -1,-50 l 41,-1 v -28 h -28 l -11.39661,-1.60339 -1.60339,-12.39661 v -34 h 29 c 3.65186,0 9.32581,1.04813 12.68213,-0.60339 4.17724,-2.05548 4.17724,-26.73774 0,-28.79322 -4.89594,-2.40912 -14.29291,-0.61203 -19.68213,-0.60339 -16.94159,0.0272 -33.98419,1 -51,1 m 91,0 v 133 32 l 1.60339,11.97223 20.39661,1.02777 h 54 v -30 h -47 v -47 h 41 v -29 h -41 v -43 h 31 c 3.58875,0 9.28363,1.06271 12.56635,-0.60339 4.2655,-2.16489 4.36578,-26.70194 0.11578,-28.79322 -6.25104,-3.07592 -17.04132,0.0664 -23.68213,0.35724 -16.26868,0.71247 -32.7146,0.0394 -49,0.0394 m 209,0 v 130 34 c 0,3.32819 -1.17517,9.61517 1.02777,12.39661 2.91443,3.67978 25.23914,3.22204 26.65436,-1.54474 3.12189,-10.51538 0.31787,-25.87018 0.31787,-36.85187 0,-25.67395 3.10974,-53.63229 -1,-79 h 1 c 8.03882,28.59506 13.25421,58.14844 20.37421,87 1.64923,6.68311 2.6781,25.75354 8.21454,29.97223 4.2763,3.25845 16.17785,1.02777 21.41125,1.02777 7.89581,-38.27472 22.90131,-78.06732 26,-117 h 1 c 1.90094,8.27222 0,18.42319 0,27 v 59 c 0,6.78613 -3.237,25.01187 1.02777,30.39661 2.69006,3.39645 25.41488,3.25641 27.36878,-0.71451 4.4309,-9.00467 0.6034,-28.6254 0.6034,-38.6821 v -95 -30 c 0,-3.12152 1.0457,-8.77859 -1.0278,-11.39661 -1.997,-2.52145 -7.1692,-1.60321 -9.9722,-1.60339 -9.38386,-6.1e-4 -18.65651,0.99384 -27.99995,1 -7.60651,39.22284 -23.83081,79.18127 -27,119 -5.49164,-9.5224 -6.65869,-23.28387 -9.01392,-34 -3.89337,-17.71463 -8.47686,-35.28891 -12.41046,-53 -1.58752,-7.1478 -2.94446,-27.61548 -9.08874,-31.97223 -3.09394,-2.19382 -8.07825,-0.52191 -11.48688,-0.19754 -8.54694,0.81336 -17.41656,0.16977 -26,0.16977 m 452.99995,-1 c -12.2739,59.46716 -27.5376,119.55515 -44,178 3.9625,1.17126 7.8822,1 12,1 4.4028,0 13.7554,1.75934 17.4113,-1.02777 9.0931,-6.93237 1.6331,-29.40643 10.1527,-37.36884 2.7212,-2.54318 8.0319,-1.60339 11.436,-1.60339 h 29 l 8,40 31,-1 c -12.1901,-43.27692 -22.2212,-87.3786 -33.1266,-131 l -8.2468,-33 c -0.8845,-3.53799 -1.2969,-10.59445 -4.3543,-12.97223 -5.3339,-4.14841 -22.588,-1.02777 -29.2723,-1.02777 m -566.99995,1 v 126 35 c 0,4.15466 -1.26837,10.87817 0.60339,14.6821 2.22553,4.52292 27.60004,4.15039 29.07874,-0.83023 1.80188,-6.06919 0.31787,-14.53833 0.31787,-20.85187 0,-16.72357 -1,-33.30521 -1,-50 3.3905,0 8.61261,-0.93942 11.29785,1.60339 3.68518,3.48966 4.80316,11.69965 6.36884,16.39661 l 13,39 c 1.48486,4.4545 2.53418,12.08105 6.03546,15.39661 4.98639,4.72186 22.65796,1.60339 29.29785,1.60339 -1.67474,-19.18021 -12.53772,-39.78986 -18.66742,-58 -1.95557,-5.80963 -5.75909,-12.61002 -5.97534,-18.81558 -0.1579,-4.53122 7.49377,-8.09754 10.17822,-11.22379 6.20191,-7.22268 9.2135,-15.70199 10.84955,-24.96063 1.25415,-7.09753 0.77692,-14.81009 0.60034,-22 -0.12445,-5.06772 -1.25189,-10.1557 -2.70685,-15 -11.33911,-37.75446 -58.72888,-28 -89.2785,-28 m 412.99995,0 v 119 58 c 7.4343,2.19748 16.2776,1 24,1 20.8054,0 43.6345,0.006 59.7137,-15.43903 26.998,-25.93335 27.424,-76.57116 19.6351,-110.56097 -2.8746,-12.54413 -7.5755,-25.4007 -16.4422,-34.99924 -21.6275,-23.41269 -58.1661,-17.00076 -86.9066,-17.00076 m -87,26.32947 c 15.5941,-2.80362 24.564,10.62149 28.6528,23.67053 7.1814,22.91855 7.1833,54.07571 0,77 -3.0697,9.79669 -8.3528,21.63531 -19.6528,23.67053 -15.3741,2.76898 -24.7666,-9.24496 -28.5718,-22.67053 -6.6261,-23.37839 -6.82,-51.47217 -0.7986,-75 2.7868,-10.88861 7.7251,-24.39706 20.3704,-26.67053 m -296.99995,0.67053 c 8.16577,0 17.84235,-1.12515 24.99536,3.70294 10.94415,7.387 11.47901,31.3711 3.58569,41.25385 -3.98669,4.99151 -22.15148,12.06915 -27.40203,5.43982 -2.54517,-3.2135 -1.17902,-10.54593 -1.17902,-14.39661 v -36 m -363,122 v -121 c 11.01273,0 22.99661,-0.28308 31.90973,7.37964 19.9306,17.13458 16.89276,57.61349 12.47839,80.62036 -1.6839,8.77618 -4.82531,18.43839 -11.56173,24.6713 -9.01062,8.33712 -21.34845,8.3287 -32.82639,8.3287 m 776.99995,-1 v -120 c 11.9736,0 24.7961,-0.008 33.8148,9.17361 6.39,6.50553 9.4093,16.05954 10.9352,24.82639 4.0956,23.53101 6.6075,63.99133 -14.7539,80.46759 -8.7732,6.76685 -19.5957,5.53241 -29.9961,5.53241 m 140,-106 13,69 h -28 l 13,-69 h 2 m 73,122 c -0.4543,3.09052 -2.6337,7.68472 -0.9321,10.60648 7.4889,12.85897 30.6778,2.81717 33.3996,-8.60648 2.242,-9.41 -0.7684,-17.63013 -8.4682,-23.39044 -4.7223,-3.53278 -15.8473,-7.91626 -13.9167,-15.59412 2.3368,-9.29339 13.0356,-4.6203 18.9174,-3.01544 0.6371,-2.7883 2.5607,-6.87189 0.9321,-9.58102 -5.8382,-9.71195 -25.5398,-2.88138 -29.8426,4.58487 -11.445,19.85943 12.5423,24.93304 20.1675,37.01159 3.5966,5.69733 -0.726,12.59058 -7.257,12.78241 -4.7939,0.14078 -8.7745,-3.05585 -13,-4.79785 m 91,0 c -5.8077,22.44849 28.229,19.38599 32.4707,1 2.1397,-9.27444 -1.8342,-17.42877 -9.4714,-22.6412 -5.0066,-3.41703 -14.9444,-7.62504 -13.2416,-15.34336 2.1838,-9.89905 13.191,-4.09012 19.2423,-3.01544 l 2,-10 c -5.7946,-2.23215 -11.6743,-4.65289 -18,-3.53473 -13.2513,2.34235 -19.387,16.79544 -12.6327,28.53088 4.7653,8.27939 17.859,10.57044 20.645,20.00385 4.2012,14.22507 -15.5659,8.245 -21.0123,5 m -36,-53 -18,67 h 12 c 1.1077,-8.2254 8.691,-23.71545 19.4113,-13.39661 2.9234,2.81409 3.0955,9.57795 3.5887,13.39661 h 13 l -18,-67 h -12 m 6,16 6,25 h -12 z"
       id="path1" />
  </g>
</svg>
